<svg width="760" height="560" viewBox="0 0 760 560" fill="none" xmlns="http://www.w3.org/2000/svg"><rect x="55" y="52" width="650" height="430" rx="35" fill="#172554"/><rect x="93" y="91" width="574" height="315" rx="18" fill="#020617"/><circle cx="125" cy="120" r="7" fill="#F87171"/><circle cx="149" cy="120" r="7" fill="#FBBF24"/><circle cx="173" cy="120" r="7" fill="#4ADE80"/><path d="M167 209L120 250L167 291" stroke="#38BDF8" stroke-width="15" stroke-linecap="round" stroke-linejoin="round"/><path d="M310 190L252 310" stroke="#818CF8" stroke-width="15" stroke-linecap="round"/><path d="M394 209L441 250L394 291" stroke="#38BDF8" stroke-width="15" stroke-linecap="round" stroke-linejoin="round"/><rect x="490" y="184" width="120" height="14" rx="7" fill="#334155"/><rect x="490" y="217" width="90" height="14" rx="7" fill="#334155"/><rect x="490" y="250" width="135" height="14" rx="7" fill="#334155"/><rect x="490" y="283" width="105" height="14" rx="7" fill="#334155"/><path d="M272 406H488L535 477H225L272 406Z" fill="#334155"/><rect x="180" y="477" width="400" height="24" rx="12" fill="#64748B"/><circle cx="602" cy="398" r="83" fill="#0EA5E9"/><path d="M561 397L589 426L647 363" stroke="white" stroke-width="18" stroke-linecap="round" stroke-linejoin="round"/></svg>
